<svg width="1753" height="999" viewBox="0 0 1753 999" fill="none" xmlns="http://www.w3.org/2000/svg">
<circle cx="813.5" cy="653.5" r="67.5" fill="#050110"/>
<mask id="path-2-inside-1_120_7863" fill="white">
<path d="M862 653.5C862 647.131 860.746 640.824 858.308 634.94C855.871 629.056 852.298 623.709 847.795 619.205C843.291 614.702 837.944 611.129 832.06 608.692C826.176 606.254 819.869 605 813.5 605C807.131 605 800.824 606.254 794.94 608.692C789.056 611.129 783.709 614.702 779.205 619.205C774.702 623.709 771.129 629.056 768.692 634.94C766.254 640.824 765 647.131 765 653.5L778.171 653.5C778.171 648.861 779.085 644.267 780.86 639.98C782.636 635.694 785.238 631.799 788.519 628.519C791.799 625.238 795.694 622.636 799.98 620.86C804.267 619.085 808.861 618.171 813.5 618.171C818.139 618.171 822.733 619.085 827.02 620.86C831.306 622.636 835.201 625.238 838.481 628.519C841.762 631.799 844.364 635.694 846.14 639.98C847.915 644.267 848.829 648.861 848.829 653.5H862Z"/>
</mask>
<path d="M862 653.5C862 647.131 860.746 640.824 858.308 634.94C855.871 629.056 852.298 623.709 847.795 619.205C843.291 614.702 837.944 611.129 832.06 608.692C826.176 606.254 819.869 605 813.5 605C807.131 605 800.824 606.254 794.94 608.692C789.056 611.129 783.709 614.702 779.205 619.205C774.702 623.709 771.129 629.056 768.692 634.94C766.254 640.824 765 647.131 765 653.5L778.171 653.5C778.171 648.861 779.085 644.267 780.86 639.98C782.636 635.694 785.238 631.799 788.519 628.519C791.799 625.238 795.694 622.636 799.98 620.86C804.267 619.085 808.861 618.171 813.5 618.171C818.139 618.171 822.733 619.085 827.02 620.86C831.306 622.636 835.201 625.238 838.481 628.519C841.762 631.799 844.364 635.694 846.14 639.98C847.915 644.267 848.829 648.861 848.829 653.5H862Z" fill="url(#paint0_linear_120_7863)" stroke="url(#paint1_linear_120_7863)" stroke-width="16" stroke-dasharray="16 16" mask="url(#path-2-inside-1_120_7863)"/>
<mask id="path-3-inside-2_120_7863" fill="white">
<path d="M765 657.5C765 663.869 766.254 670.176 768.692 676.06C771.129 681.944 774.702 687.291 779.205 691.795C783.709 696.298 789.056 699.871 794.94 702.308C800.824 704.746 807.131 706 813.5 706C819.869 706 826.176 704.746 832.06 702.308C837.944 699.871 843.291 696.298 847.795 691.795C852.298 687.291 855.871 681.944 858.308 676.06C860.746 670.176 862 663.869 862 657.5L848.829 657.5C848.829 662.139 847.915 666.733 846.14 671.02C844.364 675.306 841.762 679.201 838.481 682.481C835.201 685.762 831.306 688.364 827.02 690.14C822.733 691.915 818.139 692.829 813.5 692.829C808.861 692.829 804.267 691.915 799.98 690.14C795.694 688.364 791.799 685.762 788.519 682.481C785.238 679.201 782.636 675.306 780.86 671.02C779.085 666.733 778.171 662.139 778.171 657.5H765Z"/>
</mask>
<path d="M765 657.5C765 663.869 766.254 670.176 768.692 676.06C771.129 681.944 774.702 687.291 779.205 691.795C783.709 696.298 789.056 699.871 794.94 702.308C800.824 704.746 807.131 706 813.5 706C819.869 706 826.176 704.746 832.06 702.308C837.944 699.871 843.291 696.298 847.795 691.795C852.298 687.291 855.871 681.944 858.308 676.06C860.746 670.176 862 663.869 862 657.5L848.829 657.5C848.829 662.139 847.915 666.733 846.14 671.02C844.364 675.306 841.762 679.201 838.481 682.481C835.201 685.762 831.306 688.364 827.02 690.14C822.733 691.915 818.139 692.829 813.5 692.829C808.861 692.829 804.267 691.915 799.98 690.14C795.694 688.364 791.799 685.762 788.519 682.481C785.238 679.201 782.636 675.306 780.86 671.02C779.085 666.733 778.171 662.139 778.171 657.5H765Z" fill="url(#paint2_linear_120_7863)" stroke="url(#paint3_linear_120_7863)" stroke-width="16" stroke-dasharray="16 16" mask="url(#path-3-inside-2_120_7863)"/>
<path d="M6.19188 998C2.06478 679.198 -20.8085 658 257.192 658" stroke="#FC53B5" stroke-width="8" stroke-dasharray="20 20"/>
<path d="M1736.87 1C1742.18 319.802 1825.64 654 1468 654" stroke="#5747E4" stroke-width="8" stroke-dasharray="20 20"/>
<path d="M269.982 657.802L741.997 660.198" stroke="#FC53B5" stroke-width="8" stroke-dasharray="16 16"/>
<line x1="888.979" y1="657" x2="1467.98" y2="654" stroke="#5747E4" stroke-width="8" stroke-dasharray="16 16"/>
<defs>
<linearGradient id="paint0_linear_120_7863" x1="813.5" y1="605" x2="813.5" y2="702" gradientUnits="userSpaceOnUse">
<stop stop-color="#5747E4"/>
<stop offset="1" stop-color="#FC53B5"/>
</linearGradient>
<linearGradient id="paint1_linear_120_7863" x1="813.5" y1="605" x2="813.5" y2="702" gradientUnits="userSpaceOnUse">
<stop stop-color="#FC53B5"/>
<stop offset="1" stop-color="#5747E4"/>
</linearGradient>
<linearGradient id="paint2_linear_120_7863" x1="813.5" y1="706" x2="813.5" y2="609" gradientUnits="userSpaceOnUse">
<stop stop-color="#FC53B5"/>
<stop offset="1" stop-color="#5747E4"/>
</linearGradient>
<linearGradient id="paint3_linear_120_7863" x1="813.5" y1="706" x2="813.5" y2="609" gradientUnits="userSpaceOnUse">
<stop stop-color="#5747E4"/>
<stop offset="1" stop-color="#FC53B5"/>
</linearGradient>
</defs>
</svg>
