<svg width="663" height="412" viewBox="0 0 663 412" fill="none" xmlns="http://www.w3.org/2000/svg">
<path d="M184.311 166.312C466.074 160.731 438.208 201.071 436.967 2.46492" stroke="url(#paint0_linear_31_15611)" stroke-width="2" stroke-dasharray="10 10"/>
<path d="M371 315C165.218 319.708 185.305 296.254 187.534 411" stroke="url(#paint1_linear_31_15611)" stroke-width="2" stroke-dasharray="10 10"/>
<path d="M552 183C557.395 340.951 530.52 325.533 662 323.823" stroke="url(#paint2_linear_31_15611)" stroke-width="2" stroke-dasharray="10 10"/>
<path d="M123 4.10059C120.302 312.706 133.74 282.582 68 279.24" stroke="url(#paint3_linear_31_15611)" stroke-width="2" stroke-dasharray="10 10"/>
<path d="M64 279.5C-6.07697 285.753 0.763463 254.603 1.5223 407" stroke="url(#paint4_linear_31_15611)" stroke-width="2" stroke-dasharray="10 10"/>
<path d="M367.627 316.278L367.614 316.255L367.388 316.214L366.077 315.974L366.528 315.054L366.62 314.866L366.646 314.851L366.713 314.719L428.532 192.397L501.829 297.115L448.811 331.083L367.635 316.279L367.627 316.278ZM448.288 329.38L448.482 329.415L448.648 329.309L497.359 298.081L498.492 297.355L497.16 297.165L415.709 285.588L415.526 285.562L415.37 285.661L370.479 314.281L369.405 314.965L370.658 315.194L448.288 329.38ZM429.88 197.05L429.158 196.018L428.976 197.264L416.328 283.565L416.255 284.062L416.752 284.132L497.887 295.675L499.028 295.837L498.368 294.893L429.88 197.05ZM426.722 201.677L425.781 201.379L370.113 311.531L369.29 313.158L370.828 312.178L414.422 284.386L414.615 284.263L414.648 284.037L426.722 201.677Z" stroke="url(#paint5_linear_31_15611)"/>
<path d="M381.457 304.809L374.191 309.441L373.922 309.019L371.827 310.355L373.324 307.392L372.878 307.167L377.517 297.988L377.963 298.213L382.602 289.034L382.156 288.808L386.795 279.629L387.241 279.855L391.88 270.675L391.434 270.45L396.073 261.27L396.519 261.496L401.158 252.317L400.712 252.091L405.351 242.912L405.797 243.137L410.437 233.958L409.99 233.733L414.629 224.553L415.076 224.779L419.715 215.599L419.268 215.374L423.907 206.195L424.354 206.42L425.286 204.575L424.978 206.68L425.472 206.752L423.963 217.047L423.468 216.975L421.959 227.27L422.454 227.342L420.944 237.637L420.45 237.565L418.94 247.86L419.435 247.932L417.926 258.227L417.431 258.155L415.922 268.45L416.417 268.522L414.907 278.817L414.413 278.745L413.691 283.666L410.251 285.859L410.52 286.281L403.254 290.913L402.985 290.491L395.72 295.123L395.988 295.545L388.723 300.177L388.454 299.755L381.188 304.387L381.457 304.809Z" fill="#080216" stroke="black" stroke-dasharray="10 10"/>
<path d="M418.101 278.319L417.606 278.247L419.188 267.459L419.683 267.531L421.265 256.743L420.77 256.671L422.352 245.882L422.847 245.955L424.428 235.167L423.934 235.094L425.516 224.306L426.01 224.379L427.592 213.591L427.097 213.518L428.679 202.73L429.174 202.803L429.782 198.654L431.914 201.7L432.324 201.413L438.03 209.567L437.621 209.854L443.327 218.008L443.737 217.721L449.444 225.875L449.034 226.162L454.741 234.316L455.151 234.029L460.857 242.183L460.448 242.47L466.154 250.623L466.564 250.337L472.271 258.491L471.861 258.777L477.568 266.931L477.978 266.645L483.684 274.799L483.275 275.085L488.981 283.239L489.391 282.953L495.098 291.107L494.688 291.393L496.881 294.526L492.951 293.967L492.88 294.462L482.738 293.019L482.809 292.524L472.667 291.081L472.596 291.576L462.454 290.134L462.525 289.639L452.383 288.196L452.312 288.691L442.17 287.248L442.241 286.753L432.099 285.31L432.028 285.805L421.887 284.362L421.957 283.867L417.383 283.216L418.101 278.319Z" fill="#080216" stroke="black" stroke-dasharray="10 10"/>
<path d="M492.414 221.587L492.418 221.969L492.788 222.065L550.409 237.061L550.661 236.093L493.409 221.193L492.791 167.992L549.969 182.82L550.22 181.852L492.409 166.86L491.776 166.696L491.783 167.35L492.414 221.587ZM612.131 202.01L612.379 201.863L612.377 201.575L611.927 147.197L611.92 146.33L611.173 146.771L552.314 181.502L552.822 182.363L610.934 148.073L611.375 201.295L552.767 235.871L553.276 236.732L612.131 202.01ZM613.421 144.811L613.412 144.86L613.412 144.909L613.892 203.041L551.659 239.559L490.973 223.77L490.233 164.826L552.72 129.434L552.901 129.477L552.902 129.478L613.551 144.137L613.421 144.811ZM494.722 164.4L493.652 165.009L494.844 165.318L551.263 179.937L551.464 179.989L551.643 179.884L608.892 146.056L609.953 145.429L608.755 145.14L552.62 131.58L552.428 131.533L552.255 131.631L494.722 164.4Z" stroke="url(#paint6_linear_31_15611)"/>
<path d="M313 165C313 197.511 284.423 224 249 224C213.577 224 185 197.511 185 165C185 132.489 213.577 106 249 106C284.423 106 313 132.489 313 165Z" fill="#080216" stroke="url(#paint7_linear_31_15611)" stroke-width="2"/>
<path d="M314 166.5C314 175.475 307.129 183.836 295.493 190.012C283.902 196.164 267.819 200 250 200C232.181 200 216.098 196.164 204.507 190.012C192.871 183.836 186 175.475 186 166.5C186 157.525 192.871 149.164 204.507 142.988C216.098 136.836 232.181 133 250 133C267.819 133 283.902 136.836 295.493 142.988C307.129 149.164 314 157.525 314 166.5Z" fill="#080216" stroke="url(#paint8_linear_31_15611)" stroke-width="2"/>
<defs>
<linearGradient id="paint0_linear_31_15611" x1="311.665" y1="168.437" x2="481.374" y2="104.547" gradientUnits="userSpaceOnUse">
<stop stop-color="#B74072"/>
<stop offset="1" stop-color="#3F64F7"/>
</linearGradient>
<linearGradient id="paint1_linear_31_15611" x1="277.957" y1="314.443" x2="163.345" y2="370.506" gradientUnits="userSpaceOnUse">
<stop stop-color="#B74072"/>
<stop offset="1" stop-color="#3F64F7"/>
</linearGradient>
<linearGradient id="paint2_linear_31_15611" x1="551.362" y1="254.416" x2="583.622" y2="352.868" gradientUnits="userSpaceOnUse">
<stop stop-color="#B74072"/>
<stop offset="1" stop-color="#3F64F7"/>
</linearGradient>
<linearGradient id="paint3_linear_31_15611" x1="123.319" y1="143.634" x2="19.9884" y2="224.336" gradientUnits="userSpaceOnUse">
<stop stop-color="#B74072"/>
<stop offset="1" stop-color="#3F64F7"/>
</linearGradient>
<linearGradient id="paint4_linear_31_15611" x1="32.3153" y1="278.761" x2="-15.3044" y2="284.733" gradientUnits="userSpaceOnUse">
<stop stop-color="#B74072"/>
<stop offset="1" stop-color="#3F64F7"/>
</linearGradient>
<linearGradient id="paint5_linear_31_15611" x1="448.513" y1="331.844" x2="382.393" y2="218.24" gradientUnits="userSpaceOnUse">
<stop stop-color="#B74072"/>
<stop offset="1" stop-color="#3F64F7"/>
</linearGradient>
<linearGradient id="paint6_linear_31_15611" x1="573.276" y1="128.208" x2="530.89" y2="239.543" gradientUnits="userSpaceOnUse">
<stop stop-color="#B74072"/>
<stop offset="1" stop-color="#3F64F7"/>
</linearGradient>
<linearGradient id="paint7_linear_31_15611" x1="249" y1="105" x2="249" y2="225" gradientUnits="userSpaceOnUse">
<stop stop-color="#B74072"/>
<stop offset="1" stop-color="#3F64F7"/>
</linearGradient>
<linearGradient id="paint8_linear_31_15611" x1="250" y1="132" x2="250" y2="201" gradientUnits="userSpaceOnUse">
<stop stop-color="#B74072"/>
<stop offset="1" stop-color="#3F64F7"/>
</linearGradient>
</defs>
</svg>
